<svg width="171" height="172" viewBox="0 0 171 172" fill="none" xmlns="http://www.w3.org/2000/svg">
<g clip-path="url(#clip0_74_2539)">
<rect width="171.5" height="171.5" rx="8" fill="black"/>
<path d="M44.1821 139.739L35.1173 138.235C32.0462 137.733 28.975 137.482 25.9039 137.482H24.1207L23.8235 137.783C23.5263 137.883 23.3281 137.934 23.2291 137.934C22.4365 137.934 21.8421 137.633 21.4458 137.031C21.1486 136.429 21 135.727 21 134.925C21 134.423 21.1981 133.872 21.5944 133.27C22.0898 132.668 22.6346 132.066 23.2291 131.465L25.1609 129.659C25.7553 129.158 26.2011 128.706 26.4983 128.305V128.004V127.854C25.1114 124.945 24.4179 121.686 24.4179 118.075C25.4086 118.075 26.102 118.226 26.4983 118.527L26.9441 113.562V110.854C26.9441 109.35 26.9441 107.695 26.9441 105.889C27.0432 104.084 27.0927 102.329 27.0927 100.624V96.5619V90.8451C27.0927 88.3378 27.0432 85.8805 26.9441 83.4735C26.9441 80.9661 26.9441 78.7596 26.9441 76.854V73.3938C26.9441 72.2906 26.8946 70.8864 26.7955 69.1814L26.4983 63.9159C26.3993 62.2109 26.3002 60.7065 26.2011 59.4027C26.102 58.0988 26.0525 57.3968 26.0525 57.2965L25.6067 56.3938C25.4086 56.8953 25.0123 57.3968 24.4179 57.8982C23.9225 58.2994 23.3777 58.5501 22.7832 58.6504C21.8916 58.7507 21.4458 58.4499 21.4458 57.7478V57.2965C21.5449 57.0959 21.743 56.6445 22.0402 55.9425C22.4365 55.1401 22.6842 54.6386 22.7832 54.4381V54.2876V53.9867L22.6346 53.8363C22.4365 53.736 22.3374 53.6357 22.3374 53.5354C22.0402 53.2345 21.8916 52.9336 21.8916 52.6327C22.1888 51.2286 23.13 50.6268 24.7151 50.8274V50.3761V49.9248C24.616 49.7242 24.5169 49.2729 24.4179 48.5708C24.3188 47.7684 24.2197 47.267 24.1207 47.0664V46.9159C24.1207 46.5148 24.1702 46.1637 24.2693 45.8628C24.3683 45.4617 24.616 45.2611 25.0123 45.2611C25.7058 45.2611 26.2011 45.6121 26.4983 46.3142C26.8946 47.0162 27.1918 47.618 27.3899 48.1195L32.8883 42.5531C32.7892 41.5501 32.9378 40.7979 33.3341 40.2965C33.8294 39.795 34.3743 39.3938 34.9687 39.0929C35.6622 38.792 36.3061 38.5914 36.9006 38.4911C37.495 38.2906 37.9408 37.9395 38.238 37.4381C38.7333 36.736 38.9315 36.1844 38.8324 35.7832C38.7333 35.2817 39.0801 35.031 39.8726 35.031C40.5661 35.031 41.0615 35.2817 41.3587 35.7832C41.7549 36.2847 42.2503 36.5354 42.8447 36.5354H43.2905L61.5687 34.2788C62.2622 34.1785 62.8566 33.8274 63.352 33.2257C63.9464 32.6239 64.4912 31.972 64.9866 31.2699C65.4819 30.5678 65.9773 29.9661 66.4726 29.4646C66.968 28.8628 67.5128 28.5619 68.1073 28.5619C69.197 28.5619 69.7419 29.1136 69.7419 30.2168C69.7419 31.3201 69.6428 32.3732 69.4447 33.3761C69.3456 34.2788 69.2961 35.2817 69.2961 36.385C69.2961 39.795 69.6924 43.5059 70.4849 47.5177C71.2775 51.5295 71.9214 55.3909 72.4168 59.1018L72.8626 60.0044H81.6302L82.076 59.5531V58.0487C82.076 56.1431 81.8283 54.8894 81.333 54.2876C80.9367 53.5856 80.4909 53.1844 79.9955 53.0841C79.5002 52.8835 79.0048 52.7832 78.5095 52.7832C78.1132 52.6829 77.9151 52.3319 77.9151 51.7301C77.9151 51.028 78.1628 50.5767 78.6581 50.3761C79.1535 50.0752 79.6488 49.7242 80.1441 49.323C80.7386 48.9218 81.1844 48.3201 81.4816 47.5177C81.8778 46.7153 81.9274 45.3614 81.6302 43.4558C81.6302 43.3555 81.7292 43.205 81.9274 43.0044C82.2246 42.8038 82.4227 42.6534 82.5218 42.5531H82.6704H82.9676C83.0667 42.5531 83.2648 42.6534 83.562 42.854C83.9583 42.9543 84.206 43.0044 84.305 43.0044C84.4041 42.9041 84.5527 42.8038 84.7508 42.7035C84.949 42.503 85.0976 42.3024 85.1967 42.1018L89.2089 36.8363C90.5959 35.031 91.6857 33.0752 92.4782 30.969C92.9736 29.5649 93.2708 28.4115 93.3698 27.5089C93.568 26.6062 94.3605 25.6032 95.7475 24.5H97.6793C99.5616 24.5 101.246 24.851 102.732 25.5531C104.218 26.1549 105.803 26.6062 107.487 26.9071H116.403C119.97 26.9071 123.536 26.8068 127.103 26.6062C130.669 26.4056 134.236 26.3053 137.802 26.3053H139.734C140.725 26.3053 141.369 26.3555 141.666 26.4558C142.26 26.8569 142.756 27.6091 143.152 28.7124C143.548 29.7153 143.845 30.8186 144.044 32.0221C144.242 33.2257 144.341 34.4292 144.341 35.6327C144.44 36.736 144.489 37.5885 144.489 38.1903C144.489 40.1962 144.39 42.2021 144.192 44.208C143.994 46.1136 143.895 48.0693 143.895 50.0752C143.895 53.9867 144.143 57.7478 144.638 61.3584C145.232 64.8687 145.926 68.5796 146.718 72.4912C146.818 73.5944 146.966 75.6003 147.164 78.5089C147.362 81.3171 147.561 84.326 147.759 87.5354C148.056 90.6446 148.304 93.6534 148.502 96.5619C148.7 99.3702 148.848 101.326 148.947 102.429C148.947 102.63 148.997 103.031 149.096 103.633C149.195 104.235 149.294 104.886 149.393 105.588C149.492 106.291 149.591 106.942 149.691 107.544C149.79 108.146 149.839 108.597 149.839 108.898L150.285 109.801H153.554C153.851 109.801 154 110.052 154 110.553V111.305C154 112.108 153.604 112.559 152.811 112.659C152.118 112.76 151.424 113.06 150.731 113.562C149.641 114.264 148.749 115.217 148.056 116.42C147.362 117.524 146.619 118.577 145.827 119.58C145.629 119.881 145.282 120.332 144.787 120.934L143.301 122.739L141.666 124.544C141.171 125.046 140.873 125.347 140.774 125.447L136.762 130.111C135.375 131.816 133.988 133.22 132.601 134.323C132.403 134.423 132.007 134.674 131.412 135.075C130.917 135.476 130.223 135.978 129.332 136.58L127.251 138.084C126.657 138.485 126.31 138.736 126.211 138.836C125.419 139.438 124.973 140.09 124.874 140.792C124.081 140.591 123.487 140.541 123.091 140.642C122.694 140.742 122.347 140.892 122.05 141.093L121.159 141.394C120.861 141.594 120.416 141.695 119.821 141.695H118.93L104.069 139.288C99.0168 138.385 94.1129 137.934 89.3575 137.934H84.7508C84.4536 138.235 84.1069 138.435 83.7106 138.535C83.3143 138.535 82.9181 138.535 82.5218 138.535C81.8283 138.535 81.0358 138.335 80.1441 137.934C79.2525 137.432 78.8067 136.73 78.8067 135.827C78.8067 135.226 79.0544 134.925 79.5497 134.925C80.0451 134.824 80.3918 134.624 80.59 134.323C80.7881 134.022 80.9862 133.521 81.1844 132.819C81.4816 132.117 81.6302 131.665 81.6302 131.465V116.721L81.1844 115.367C80.8872 116.17 80.3423 116.671 79.5497 116.872C78.8562 117.072 78.1628 117.022 77.4693 116.721C77.5683 116.922 77.6674 117.273 77.7665 117.774C77.8656 118.176 77.9151 118.426 77.9151 118.527V119.128C77.9151 120.031 77.2711 120.984 75.9832 121.987C74.6953 122.889 73.6551 123.591 72.8626 124.093L56.962 139.739C56.5657 140.14 56.3181 140.591 56.219 141.093C56.1199 141.494 56.0209 141.895 55.9218 142.296C55.8227 142.597 55.6246 142.898 55.3274 143.199C55.0302 143.4 54.5348 143.5 53.8413 143.5C53.5441 143.5 52.8507 143.299 51.7609 142.898L48.4916 141.695C47.4019 141.193 46.4112 140.742 45.5196 140.341L44.1821 139.739ZM26.9441 134.774C35.0678 135.276 43.0924 136.63 51.0179 138.836C51.1169 138.836 51.3151 138.886 51.6123 138.987C51.9095 138.987 52.1076 138.987 52.2067 138.987C52.7021 138.987 53.1974 138.786 53.6927 138.385C54.2872 137.883 54.7825 137.332 55.1788 136.73C55.6741 136.028 56.0704 135.376 56.3676 134.774C56.6648 134.072 56.8629 133.471 56.962 132.969C57.0611 132.668 57.1601 132.217 57.2592 131.615C57.3583 131.013 57.4574 130.361 57.5564 129.659C57.7546 128.957 57.9032 128.305 58.0022 127.704C58.2004 127.102 58.2994 126.701 58.2994 126.5V125.748C58.2994 125.146 58.2499 124.594 58.1508 124.093C58.1508 123.591 58.0518 122.99 57.8536 122.288H57.705C57.2097 122.288 56.8134 122.438 56.5162 122.739C56.3181 123.04 55.9713 123.19 55.476 123.19C54.3862 123.19 53.7423 122.839 53.5441 122.137C53.346 121.335 52.8507 120.934 52.0581 120.934C49.9777 120.934 47.7981 121.084 45.5196 121.385C43.34 121.586 41.2596 121.736 39.2782 121.836C38.5847 122.137 37.495 122.789 36.0089 123.792C34.622 124.795 33.235 125.898 31.848 127.102C30.4611 128.305 29.2227 129.509 28.133 130.712C27.0432 131.816 26.4983 132.718 26.4983 133.42C26.4983 133.521 26.5479 133.771 26.6469 134.173C26.746 134.473 26.8451 134.674 26.9441 134.774ZM85.1967 135.226C85.4939 135.226 85.9892 135.226 86.6827 135.226C87.4752 135.125 88.2678 135.075 89.0603 135.075C89.8529 135.075 90.5959 135.125 91.2894 135.226C92.0819 135.226 92.6268 135.226 92.924 135.226C93.1222 135.226 93.6671 135.326 94.5587 135.527C95.4503 135.627 96.3914 135.777 97.3821 135.978C98.4719 136.078 99.4626 136.229 100.354 136.429C101.246 136.53 101.84 136.58 102.137 136.58C102.336 136.58 102.88 136.63 103.772 136.73C104.763 136.73 105.803 136.78 106.893 136.881C107.983 136.881 108.973 136.931 109.865 137.031C110.856 137.031 111.45 137.031 111.648 137.031C113.332 137.232 114.67 137.482 115.66 137.783C116.75 137.984 117.988 138.084 119.375 138.084C119.375 136.379 119.276 134.674 119.078 132.969C118.979 131.264 118.93 129.559 118.93 127.854C118.93 125.948 118.979 124.093 119.078 122.288C119.276 120.482 119.375 118.627 119.375 116.721V116.27C117.196 115.969 115.215 115.819 113.431 115.819H107.487H101.543C101.444 115.919 101.246 116.119 100.949 116.42C100.651 116.621 100.404 116.721 100.206 116.721C100.107 116.822 99.8093 116.922 99.314 117.022C98.8186 117.122 98.5214 117.173 98.4224 117.173C97.0354 117.975 95.5989 119.078 94.1129 120.482C92.6268 121.886 91.4875 123.09 90.695 124.093C90.5959 124.193 90.2987 124.594 89.8034 125.296L88.0201 127.704L86.2369 130.261C85.5434 131.264 85.0481 131.966 84.7508 132.367C84.5527 132.768 84.4041 133.069 84.305 133.27C84.305 133.471 84.305 133.771 84.305 134.173C84.305 134.373 84.305 134.624 84.305 134.925C84.4041 135.226 84.7013 135.326 85.1967 135.226ZM121.604 124.544C121.604 128.857 121.902 133.019 122.496 137.031C125.666 135.928 128.341 134.273 130.521 132.066L137.208 124.996L141.22 120.633C142.607 119.128 143.697 117.524 144.489 115.819H140.626H136.613C136.118 115.819 135.226 115.869 133.939 115.969C132.651 115.969 131.264 116.019 129.778 116.119C128.391 116.119 127.053 116.17 125.765 116.27C124.477 116.27 123.586 116.27 123.091 116.27C122.595 116.37 122.347 116.721 122.347 117.323C122.447 117.824 122.496 118.125 122.496 118.226C122.496 119.028 122.645 119.58 122.942 119.881C123.338 120.081 123.536 120.583 123.536 121.385C123.536 122.288 123.19 122.839 122.496 123.04C121.902 123.14 121.604 123.642 121.604 124.544ZM61.1229 120.031V126.951C61.1229 127.152 61.0238 127.854 60.8257 129.058C60.7266 130.161 60.6771 130.813 60.6771 131.013V131.314V131.465C60.7762 131.364 61.0734 131.114 61.5687 130.712L62.9061 129.358L64.2436 128.155C64.6399 127.754 64.9371 127.503 65.1352 127.403C65.4324 127.102 65.7296 126.951 66.0268 126.951L69.4447 123.19L72.8626 119.58C72.8626 119.178 72.6644 118.978 72.2682 118.978H71.5251H66.1754C64.3922 118.978 62.708 119.329 61.1229 120.031ZM83.8592 113.712C83.8592 116.019 83.9583 118.326 84.1564 120.633C84.3546 122.839 84.4041 125.096 84.305 127.403C85.1967 127.202 86.0387 126.4 86.8313 124.996C87.7229 123.591 88.4164 122.538 88.9117 121.836L96.6391 114.465L97.0849 113.111V109.951C97.0849 109.249 97.0354 108.096 96.9363 106.491C96.9363 104.786 96.8868 103.131 96.7877 101.527C96.6886 99.8215 96.4905 98.3171 96.1933 97.0133C95.9952 95.6092 95.698 94.8068 95.3017 94.6062L94.7073 95.8097C94.4101 96.4115 94.0633 97.0133 93.667 97.6151L92.7754 99.4204C92.3791 100.022 92.1315 100.423 92.0324 100.624C91.6361 101.326 90.9922 102.279 90.1006 103.482L87.4257 107.093C86.435 108.397 85.5929 109.65 84.8994 110.854C84.206 112.058 83.8592 113.01 83.8592 113.712ZM29.7676 92.5V108.748C29.7676 114.264 29.5695 119.68 29.1732 124.996C29.7676 124.895 30.6097 124.444 31.6994 123.642C32.8883 122.739 34.0771 121.786 35.2659 120.783C36.4547 119.68 37.5445 118.577 38.5352 117.473C39.5259 116.37 40.2194 115.518 40.6156 114.916C40.7147 114.816 40.8633 114.615 41.0615 114.314C41.2596 113.913 41.4082 113.662 41.5073 113.562C41.2101 106.942 41.4082 100.423 42.1017 94.0044C42.8942 87.4853 43.2905 80.9159 43.2905 74.2965V69.031V64.5177C43.2905 63.0133 43.241 61.5089 43.1419 60.0044C43.0428 58.5 42.9438 56.8451 42.8447 55.0398L42.5475 52.6327C42.5475 52.031 42.0521 51.7301 41.0615 51.7301C39.7736 51.7301 38.4361 51.9307 37.0492 52.3319C35.6622 52.6327 34.4238 52.8835 33.3341 53.0841C33.1359 53.1844 32.7397 53.2847 32.1453 53.385C31.6499 53.4853 31.1546 53.6357 30.6592 53.8363C30.1639 53.9366 29.7181 54.1372 29.3218 54.4381C28.9255 54.6386 28.7274 54.8894 28.7274 55.1903C28.7274 61.5089 28.876 67.7271 29.1732 73.8451C29.5695 79.9631 29.7676 86.1814 29.7676 92.5ZM44.6279 113.712V115.668C44.6279 116.471 44.7765 117.122 45.0737 117.624C45.371 117.624 45.9654 117.674 46.857 117.774C47.7486 117.774 48.2935 117.774 48.4916 117.774C50.0767 117.774 51.4142 117.774 52.5039 117.774C53.5937 117.674 54.9311 117.473 56.5162 117.173C56.9125 117.173 57.0611 116.922 56.962 116.42C56.962 115.819 56.962 115.468 56.962 115.367C56.962 114.765 56.8134 114.314 56.5162 114.013C56.3181 113.712 56.0704 113.462 55.7732 113.261C55.476 113.06 55.1788 112.86 54.8816 112.659C54.6834 112.358 54.5844 111.957 54.5844 111.456C54.5844 110.052 55.1292 109.099 56.219 108.597C57.4078 107.996 58.3985 107.344 59.1911 106.642L62.4603 103.332C63.8473 101.827 65.1847 100.273 66.4726 98.6681C67.8596 97.0634 69.098 95.4086 70.1877 93.7035C70.3859 93.4027 70.5345 93.0015 70.6335 92.5C70.7326 91.8982 70.7821 91.3466 70.7821 90.8451C70.8812 90.3437 71.0298 89.9425 71.2279 89.6416C71.4261 89.2404 71.7728 89.0398 72.2682 89.0398H72.8626C73.0607 89.1401 73.3579 89.4912 73.7542 90.0929C74.2495 90.5944 74.5963 90.8953 74.7944 90.9956C75.686 91.4971 76.4786 91.7979 77.1721 91.8982C77.9646 91.8982 78.8562 91.8982 79.8469 91.8982C82.1255 91.8982 84.2555 91.6475 86.2369 91.146C88.3173 90.6445 90.3978 90.0929 92.4782 89.4912C92.9736 89.2906 93.568 89.0398 94.2615 88.7389C95.054 88.3378 95.698 88.1372 96.1933 88.1372C96.5896 88.1372 96.9363 88.3879 97.2335 88.8894C97.6298 89.2906 97.8775 89.6416 97.9765 89.9425C98.7691 93.4528 99.314 97.1637 99.6112 101.075L100.206 111.757L100.651 112.208C100.75 112.208 101.246 112.258 102.137 112.358C103.128 112.459 104.267 112.559 105.555 112.659L109.568 112.96C110.955 113.06 112.094 113.111 112.985 113.111H116.255H119.375C119.474 112.91 119.574 112.659 119.673 112.358C119.772 112.058 119.821 111.857 119.821 111.757C119.92 111.355 120.019 110.804 120.118 110.102L120.416 108.146C120.515 107.444 120.564 106.842 120.564 106.341C120.663 105.739 120.713 105.388 120.713 105.288C120.713 104.886 120.713 104.235 120.713 103.332C120.812 102.329 120.861 101.276 120.861 100.173C120.861 99.0693 120.812 98.0664 120.713 97.1637C120.713 96.1608 120.713 95.4587 120.713 95.0575L123.982 66.4735V65.2699C123.982 63.1637 123.933 61.0575 123.834 58.9513C123.734 56.7448 123.289 54.6386 122.496 52.6327C122.496 52.9336 122.347 53.0841 122.05 53.0841C121.852 53.385 121.555 54.0369 121.159 55.0398C120.762 55.9425 120.465 56.5443 120.267 56.8451H119.078C118.583 56.8451 118.088 56.795 117.592 56.6947C117.196 56.4941 116.998 56.0428 116.998 55.3407C116.998 54.7389 117.295 54.3378 117.889 54.1372C118.583 53.9366 118.93 53.4351 118.93 52.6327V52.1814C118.236 52.0811 116.998 51.9808 115.215 51.8805C113.431 51.6799 111.549 51.4794 109.568 51.2788C107.586 51.0782 105.704 50.9277 103.921 50.8274C102.137 50.6268 100.899 50.4764 100.206 50.3761C100.007 50.3761 99.6112 50.3761 99.0168 50.3761C98.5214 50.2758 98.1747 50.2257 97.9765 50.2257V52.3319C97.9765 53.2345 97.9765 54.1873 97.9765 55.1903C98.0756 56.0929 98.2242 56.9956 98.4224 57.8982C98.6205 58.8009 98.9177 59.5029 99.314 60.0044C100.007 59.9041 100.701 59.9543 101.394 60.1549C102.187 60.2552 102.583 60.7566 102.583 61.6593V61.9602C102.088 62.7625 101.493 63.2139 100.8 63.3142C100.107 63.3142 99.314 63.615 98.4224 64.2168C96.7382 65.3201 95.3512 66.7743 94.2615 68.5797C93.2708 70.385 92.3792 72.1401 91.5866 73.8451C90.3978 76.6534 88.9117 79.1608 87.1285 81.3673C85.3453 83.5737 82.8685 85.0782 79.6983 85.8805H79.5497C78.8562 85.8805 78.0637 85.7301 77.1721 85.4292C76.3795 85.028 75.8842 84.4263 75.686 83.6239H57.8536L56.0704 83.1726C56.1695 81.6681 56.1199 80.3643 55.9218 79.2611C55.7237 78.1578 55.6246 76.9041 55.6246 75.5C55.6246 74.1962 55.6741 72.9425 55.7732 71.7389C55.9713 70.5354 56.0704 69.2316 56.0704 67.8274C56.0704 67.1254 56.0209 66.1224 55.9218 64.8186C55.9218 63.5147 55.8723 62.1608 55.7732 60.7566C55.6741 59.2522 55.476 57.8982 55.1788 56.6947C54.9806 55.3909 54.6834 54.4882 54.2872 53.9867L51.9095 56.3938C51.7114 56.5944 51.4142 57.0457 51.0179 57.7478C50.7207 58.3496 50.3739 58.6504 49.9777 58.6504C49.3832 58.6504 48.9374 58.6003 48.6402 58.5C48.343 58.2994 48.1944 57.8982 48.1944 57.2965C48.1944 57.1962 48.1944 57.0457 48.1944 56.8451C48.2935 56.6445 48.343 56.4941 48.343 56.3938C48.5412 56.0929 49.0365 55.4912 49.8291 54.5885C50.7207 53.5855 51.2655 52.9336 51.4637 52.6327C52.1572 51.9307 52.5039 51.2788 52.5039 50.677C51.4142 50.677 50.1758 50.7271 48.7888 50.8274C47.4019 50.8274 46.1635 50.9779 45.0737 51.2788V51.5796C45.0737 54.1873 45.2223 56.8953 45.5196 59.7035C45.9158 62.4115 46.114 65.1195 46.114 67.8274C46.114 75.5502 45.8663 83.2227 45.371 90.8451C44.8756 98.3673 44.6279 105.99 44.6279 113.712ZM60.6771 112.659V116.872C60.8752 116.872 61.3706 116.872 62.1631 116.872C63.0548 116.771 63.5996 116.721 63.7978 116.721C64.194 116.721 64.838 116.671 65.7296 116.571C66.4231 116.471 67.4138 116.37 68.7017 116.27L71.8223 115.969C72.813 115.869 73.5065 115.819 73.9028 115.819V115.367C73.9028 115.066 73.8533 114.565 73.7542 113.863C73.6551 113.06 73.3579 112.659 72.8626 112.659H60.6771ZM77.0235 112.659V114.465C77.9151 114.063 78.6581 113.462 79.2525 112.659H77.0235ZM122.496 112.81V113.111C122.595 113.111 122.793 113.261 123.091 113.562H128.44C131.313 113.562 134.087 113.512 136.762 113.412C139.437 113.211 142.161 112.81 144.935 112.208C145.133 112.108 145.431 112.007 145.827 111.907C146.223 111.807 146.52 111.556 146.718 111.155V107.243V104.235C146.718 103.131 146.57 102.078 146.273 101.075C146.174 100.173 146.025 98.5679 145.827 96.2611C145.728 93.9543 145.579 91.4971 145.381 88.8894C145.183 86.2817 144.985 83.8245 144.787 81.5177C144.588 79.2109 144.489 77.6062 144.489 76.7035C144.39 76.503 144.341 75.8009 144.341 74.5973C144.44 73.3938 144.489 72.6917 144.489 72.4912C144.291 70.9867 143.945 69.4322 143.449 67.8274C143.053 66.2227 142.756 64.7183 142.558 63.3142C142.558 63.1136 142.508 62.4617 142.409 61.3584L142.112 58.1991L141.815 55.0398C141.715 53.9366 141.666 53.2847 141.666 53.0841C141.666 52.9838 141.567 52.6327 141.369 52.031C141.27 51.4292 141.22 51.028 141.22 50.8274V48.8717C141.22 47.1667 141.369 45.4617 141.666 43.7566C142.062 42.0516 142.26 40.2965 142.26 38.4911C142.26 36.0841 142.112 34.2788 141.815 33.0752C141.517 31.7714 140.972 30.8186 140.18 30.2168C139.486 29.615 138.446 29.3142 137.059 29.3142C135.771 29.2139 134.087 29.1637 132.007 29.1637C128.539 29.1637 125.072 29.264 121.604 29.4646C118.236 29.5649 114.818 29.6151 111.351 29.6151C108.973 29.6151 106.942 29.4145 105.258 29.0133C103.574 28.6121 101.593 28.0605 99.314 27.3584H99.1654C99.0663 27.2581 98.9672 27.208 98.8682 27.208C98.3728 27.208 98.0756 27.4086 97.9765 27.8097C98.1747 29.2139 98.0756 30.3171 97.6793 31.1195C97.2831 31.9218 97.0849 32.9248 97.0849 34.1283V35.1814C97.0849 35.6829 97.1345 36.4853 97.2335 37.5885C97.3326 38.6917 97.4317 39.8953 97.5307 41.1991C97.6298 42.503 97.7289 43.7065 97.8279 44.8097C97.927 45.913 97.9765 46.6652 97.9765 47.0664C101.048 48.4705 104.366 49.2227 107.933 49.323C111.599 49.4233 115.016 49.4735 118.187 49.4735H120.713L122.199 47.2168C122.991 46.0133 123.586 45.2109 123.982 44.8097L126.657 42.1018L129.926 38.792L132.601 35.9336C133.394 35.1313 133.839 34.7301 133.939 34.7301L138.099 32.323H138.545C139.437 32.323 139.883 32.7743 139.883 33.677C139.883 34.1785 139.734 35.031 139.437 36.2345C139.14 37.3378 138.595 37.8894 137.802 37.8894C137.505 37.8894 137.257 37.8392 137.059 37.7389C136.861 37.5384 136.564 37.4381 136.168 37.4381C135.969 37.4381 135.177 38.0398 133.79 39.2434C132.403 40.3466 130.917 41.6504 129.332 43.1549C127.846 44.559 126.508 45.9631 125.32 47.3673C124.23 48.6711 123.784 49.5236 123.982 49.9248C123.982 50.0251 124.18 50.1755 124.577 50.3761C124.973 50.5767 125.22 50.7271 125.32 50.8274L125.765 51.2788C125.765 51.4794 125.815 51.9808 125.914 52.7832C126.112 53.4853 126.211 53.8864 126.211 53.9867C126.211 54.1873 126.261 54.5383 126.36 55.0398C126.459 55.441 126.558 55.7419 126.657 55.9425V61.3584C126.657 63.4646 126.508 65.5708 126.211 67.677C126.013 69.7832 126.013 71.8392 126.211 73.8451C126.013 74.5472 125.765 75.9012 125.468 77.9071L124.725 84.2257L123.982 90.5443C123.685 92.4499 123.536 93.8038 123.536 94.6062C123.536 95.1077 123.487 95.91 123.388 97.0133C123.388 98.1165 123.388 99.3201 123.388 100.624C123.388 101.928 123.388 103.181 123.388 104.385C123.487 105.488 123.536 106.24 123.536 106.642C123.239 107.645 122.991 108.698 122.793 109.801C122.595 110.904 122.496 111.907 122.496 112.81ZM61.5687 108.898C62.9557 109.4 64.0454 109.701 64.838 109.801C65.7296 109.901 66.8689 109.951 68.2559 109.951C68.3549 109.951 68.6521 110.001 69.1475 110.102C69.7419 110.102 70.2868 110.102 70.7821 110.102C71.3765 110.001 71.8719 109.901 72.2682 109.801C72.7635 109.6 73.0112 109.299 73.0112 108.898C73.0112 106.993 72.8626 105.137 72.5654 103.332C72.3672 101.426 72.0205 99.6209 71.5251 97.9159L71.3765 97.7655C71.2775 97.7655 71.1784 97.7655 71.0793 97.7655V97.9159C70.9803 98.0162 70.4849 98.5679 69.5933 99.5708L66.324 103.181L63.0547 107.093L61.5687 108.748V108.898ZM74.2 96.8628C74.2 98.6681 74.2495 100.824 74.3486 103.332C74.5467 105.739 74.9926 107.745 75.686 109.35H76.1318H78.0637C78.8562 109.35 79.6488 109.299 80.4413 109.199C81.2339 108.999 81.9769 108.798 82.6704 108.597C83.3639 108.397 83.9088 108.046 84.305 107.544L85.3453 105.889L86.8313 103.633L88.3173 101.376L89.3575 99.7212C89.8529 98.8186 90.4968 97.7153 91.2894 96.4115C92.181 95.0074 92.6268 93.7537 92.6268 92.6505C92.4287 92.6505 92.1315 92.7006 91.7352 92.8009C91.438 92.8009 91.2399 92.8009 91.1408 92.8009C90.9427 92.8009 90.5464 92.9012 89.952 93.1018C89.4566 93.2021 88.8622 93.3525 88.1687 93.5531C87.4752 93.6534 86.8313 93.8038 86.2369 94.0044C85.6425 94.1047 85.2957 94.1549 85.1967 94.1549C83.8097 94.4558 82.076 94.6563 79.9955 94.7566C78.0142 94.8569 76.4291 94.9572 75.2402 95.0575L74.3486 95.5089C74.2495 95.5089 74.2 95.7094 74.2 96.1106V96.8628ZM60.6771 79.8628C61.1724 79.8628 62.0641 79.913 63.352 80.0133C63.9464 80.0133 65.2343 80.0133 67.2156 80.0133L71.2279 80.3142C72.5158 80.3142 73.4075 80.3142 73.9028 80.3142H75.5374H77.0235C77.9151 80.3142 79.1039 80.264 80.59 80.1637C82.076 79.9631 82.8685 79.8628 82.9676 79.8628L83.4134 79.4115V78.208C83.4134 77.3053 83.3639 76.0015 83.2648 74.2965C83.2648 72.5914 83.2153 70.9366 83.1162 69.3319C83.0171 67.7271 82.9181 66.323 82.819 65.1195C82.7199 63.9159 82.6209 63.3142 82.5218 63.3142H73.3084C73.3084 63.4145 73.1598 63.6652 72.8626 64.0664C72.6644 64.4676 72.4663 64.969 72.2682 65.5708L71.3765 67.0752L71.0793 67.8274L61.5687 78.0575C61.4696 78.1578 61.321 78.3584 61.1229 78.6593C60.9248 78.9602 60.7762 79.2109 60.6771 79.4115L60.5285 79.7124L60.6771 79.8628ZM85.6425 64.8186V66.4735C85.6425 67.3761 85.692 68.5797 85.7911 70.0841C85.8901 71.5885 85.9397 72.8422 85.9397 73.8451C86.0387 74.8481 86.0883 75.4499 86.0883 75.6504L86.5341 76.7035C87.1285 76.3024 87.6734 75.7006 88.1687 74.8982C88.6641 74.0959 89.1099 73.1932 89.5061 72.1903L90.695 69.1814C90.9922 68.2788 91.2894 67.5266 91.5866 66.9248C92.0819 66.1224 92.6268 65.4204 93.2212 64.8186C93.8157 64.1165 94.5091 63.4646 95.3017 62.8628L94.8559 62.4115C94.7568 62.3112 94.3605 62.2611 93.667 62.2611H92.181H88.7631C87.5743 62.2611 86.5341 62.6121 85.6425 63.3142V64.8186ZM59.3397 67.8274C59.3397 69.031 59.2406 70.2345 59.0425 71.4381C58.8443 72.5413 58.7453 73.6445 58.7453 74.7478V76.2522C60.5285 74.5472 62.2127 72.792 63.7978 70.9867C65.3829 69.0811 67.067 67.2758 68.8503 65.5708V64.8186C68.8503 64.4174 68.7512 64.1165 68.5531 63.9159C68.454 63.615 68.4045 63.264 68.4045 62.8628C68.4045 61.8599 68.6026 60.9071 68.9989 60.0044C69.4942 59.0015 69.7419 57.9484 69.7419 56.8451C69.7419 55.3407 69.5933 53.736 69.2961 52.031C69.098 50.326 68.8007 48.6209 68.4045 46.9159C68.1073 45.2109 67.7605 43.556 67.3642 41.9513C66.968 40.2463 66.6708 38.7419 66.4726 37.4381L66.0268 36.9867L65.1352 37.8894C65.0361 38.09 64.838 38.4912 64.5408 39.0929L63.6492 40.8982L62.6089 42.854C62.3117 43.4558 62.1136 43.8068 62.0145 43.9071C61.5192 44.7094 60.8752 45.4617 60.0827 46.1637C59.3892 46.8658 58.9434 47.6681 58.7453 48.5708L58.0022 52.031C57.9032 52.733 57.8536 53.6858 57.8536 54.8894C57.8536 57.0959 58.1013 59.2522 58.5966 61.3584C59.092 63.4646 59.3397 65.6209 59.3397 67.8274ZM84.7508 52.4823V55.9425C84.7508 56.444 84.8499 57.0959 85.0481 57.8982L85.1967 59.1018H95.3017L95.7475 58.1991V56.6947C95.7475 55.5915 95.698 54.6386 95.5989 53.8363C95.5989 52.9336 95.4998 51.7802 95.3017 50.3761C95.1035 50.0752 94.9549 49.9248 94.8559 49.9248H94.4101H93.8157C93.5184 49.9248 93.0726 49.9248 92.4782 49.9248L90.3978 50.2257H88.3173C87.7229 50.326 87.2771 50.3761 86.9799 50.3761L84.7508 49.0221V52.4823ZM36.9006 44.3584C36.7024 44.4587 36.1575 44.8097 35.2659 45.4115C34.3743 45.913 33.7304 46.3142 33.3341 46.615L31.2536 48.5708C30.4611 49.3732 30.0648 49.8245 30.0648 49.9248V50.5266C30.2629 50.5266 30.5601 50.5266 30.9564 50.5266C31.4518 50.4263 31.7985 50.3761 31.9966 50.3761C32.2939 50.3761 32.8387 50.326 33.6313 50.2257C34.4238 50.0251 35.2659 49.8746 36.1575 49.7743C37.1482 49.5738 38.0399 49.4233 38.8324 49.323C39.724 49.1224 40.3184 49.0221 40.6156 49.0221C41.111 49.2227 41.3587 49.1224 41.3587 48.7212C41.4577 48.2198 41.5073 47.8687 41.5073 47.6681C41.5073 47.1667 41.4577 46.7153 41.3587 46.3142C41.3587 45.913 41.2596 45.4115 41.0615 44.8097C40.7642 44.6091 40.0708 44.4587 38.981 44.3584C37.9903 44.2581 37.2968 44.2581 36.9006 44.3584ZM43.7363 39.8451C43.7363 41.2493 43.8354 42.6032 44.0335 43.9071L44.6279 48.1195H46.7084C48.2935 48.1195 49.5814 48.1195 50.5721 48.1195C51.6618 48.0192 53.1974 47.8687 55.1788 47.6681C56.5657 46.4646 57.9032 44.9602 59.1911 43.1549C60.578 41.2493 61.2715 39.3437 61.2715 37.4381H59.1911C58.6957 37.4381 57.7546 37.5384 56.3676 37.7389C54.9806 37.8392 53.4946 37.9897 51.9095 38.1903C50.4235 38.2906 48.987 38.441 47.6 38.6416C46.213 38.7419 45.2223 38.792 44.6279 38.792C44.1326 38.6917 43.8354 38.792 43.7363 39.0929C43.7363 39.3938 43.7363 39.6445 43.7363 39.8451ZM88.0201 43.4558C87.3266 44.3584 86.9799 44.9602 86.9799 45.2611C86.9799 45.562 87.0294 45.8628 87.1285 46.1637C87.2276 46.4646 87.5248 46.615 88.0201 46.615H94.8559V43.9071C94.8559 43.4056 94.8063 42.8038 94.7073 42.1018C94.7073 41.2994 94.6577 40.5472 94.5587 39.8451C94.4596 39.0428 94.3605 38.3909 94.2615 37.8894V36.9867L93.8157 36.0841C93.7166 36.1844 93.3698 36.6357 92.7754 37.4381L90.3978 40.2965C89.5062 41.3997 88.7136 42.4528 88.0201 43.4558Z" fill="#FACC15"/>
</g>
<defs>
<clipPath id="clip0_74_2539">
<rect width="171" height="172" fill="white"/>
</clipPath>
</defs>
</svg>
